<svg xmlns="http://www.w3.org/2000/svg" width="23.4" height="26.742" viewBox="0 0 23.4 26.742">
  <path fill="currentColor" id="passport-solid" d="M0,3.343A3.346,3.346,0,0,1,3.343,0H20.057A3.346,3.346,0,0,1,23.4,3.343V23.4a3.346,3.346,0,0,1-3.343,3.343H3.343A3.346,3.346,0,0,1,0,23.4ZM9.558,14.562a5.024,5.024,0,0,1-2.8-3.7H8.8A11.421,11.421,0,0,0,9.558,14.562Zm2.157.481h-.031a5.462,5.462,0,0,1-.475-.862,9.635,9.635,0,0,1-.742-3.317h2.46a9.514,9.514,0,0,1-.742,3.317,5.462,5.462,0,0,1-.475.862Zm2.126-.481a11.739,11.739,0,0,0,.763-3.7h2.042A5.024,5.024,0,0,1,13.841,14.562ZM14.6,9.193a11.421,11.421,0,0,0-.763-3.7,5.024,5.024,0,0,1,2.8,3.7Zm-2.92-4.179h.031a5.462,5.462,0,0,1,.475.862,9.635,9.635,0,0,1,.742,3.317h-2.46a9.514,9.514,0,0,1,.742-3.317,5.462,5.462,0,0,1,.475-.862Zm-2.126.481a11.739,11.739,0,0,0-.763,3.7H6.754A5.024,5.024,0,0,1,9.558,5.495Zm8.827,4.534A6.686,6.686,0,1,0,11.7,16.714,6.686,6.686,0,0,0,18.385,10.028ZM5.85,20.057a.836.836,0,0,0,0,1.671h11.7a.836.836,0,0,0,0-1.671Z"/>
</svg>
