<svg xmlns="http://www.w3.org/2000/svg" xmlns:xlink="http://www.w3.org/1999/xlink" id="Capa_1" x="0px" y="0px" viewBox="0 0 306.3 300" style="enable-background:new 0 0 306.3 300;" xml:space="preserve">
<style type="text/css">
	.footer-cohete-0{fill:#E4ECF7;}
	.footer-cohete-1{opacity:0.23;}
	.footer-cohete-2{fill:#5147D1;}
	.footer-cohete-3{fill:url(#XMLID_306_);}
	.footer-cohete-4{fill:#F09A82;}
	.footer-cohete-5{fill:#FFC2B0;}
	.footer-cohete-6{fill:#6D3A1D;}
	.footer-cohete-7{fill:#471F15;}
	.footer-cohete-8{fill:url(#XMLID_307_);}
	.footer-cohete-9{fill:url(#XMLID_308_);}
	.footer-cohete-10{opacity:0.31;fill:#8CCCE0;}
	.footer-cohete-11{fill:#9E9BB2;}
	.footer-cohete-12{opacity:0.23;fill:#5147D1;}
	.footer-cohete-13{fill:#E4E3E5;}
	.footer-cohete-14{fill:#FFFFFF;}
	.footer-cohete-15{fill:#D9E9FF;}
	.footer-cohete-16{fill:#A52020;}
	.footer-cohete-17{fill:url(#XMLID_309_);}
	.footer-cohete-18{fill:#FFE18C;}
	.footer-cohete-19{fill:url(#XMLID_310_);}
	.footer-cohete-20{fill:#FF0037;}
	.footer-cohete-21{fill:#AFC3DB;}
	.footer-cohete-22{fill:url(#XMLID_311_);}
	.footer-cohete-23{opacity:0.49;fill:#4BA4D6;}
	.footer-cohete-24{fill:url(#XMLID_312_);}
	.footer-cohete-25{opacity:0.26;fill:#433BAD;}
	.footer-cohete-26{opacity:0.4;}
	.footer-cohete-27{fill:#EBF0FF;}
	.footer-cohete-28{fill:#228FEE;}
	.footer-cohete-29{fill:#F5A791;}
	.footer-cohete-30{fill:#EA8A6C;}
	.footer-cohete-31{fill:url(#XMLID_313_);}
	.footer-cohete-32{fill:#CF7C2C;}
	.footer-cohete-33{fill:#4A148C;}
	.footer-cohete-34{fill:#211A8A;}
	.footer-cohete-35{fill:#9581E7;}
	.footer-cohete-36{fill:#665FDE;}
	.footer-cohete-37{fill:#C5BAF2;}
	.footer-cohete-38{fill:#8667BF;}
	.footer-cohete-39{fill:url(#XMLID_315_);}
	.footer-cohete-40{fill:#495968;}
	.footer-cohete-41{fill:url(#XMLID_323_);}
	.footer-cohete-42{fill:#1F1796;}
	.footer-cohete-43{fill:#FDFDFD;}
	.footer-cohete-44{fill:#5B6B7C;}
	.footer-cohete-45{fill:#A8C4E5;}
	.footer-cohete-46{fill:#E1EAF4;}
	.footer-cohete-47{fill:#407BBF;}
	.footer-cohete-48{opacity:0.57;fill:#EBCAE3;}
	.footer-cohete-49{fill:#E9E8F7;}
	.footer-cohete-50{fill:#FFBABA;}
	.footer-cohete-51{fill:#282033;}
	.footer-cohete-52{fill:#1B6596;}
	.footer-cohete-53{fill:#153989;}
	.footer-cohete-54{fill:url(#XMLID_338_);}
	.footer-cohete-55{fill:#2180C2;}
	.footer-cohete-56{fill:url(#XMLID_339_);}
	.footer-cohete-57{fill:#BBBABF;}
	.footer-cohete-58{fill:#7DFAFF;}
	.footer-cohete-59{opacity:0.4;fill:#FFFFFF;}
	.footer-cohete-60{fill:url(#XMLID_340_);}
</style>
<circle id="XMLID_209_" class="footer-cohete-0" cx="6.1" cy="164.2" r="3.1"/>
<g id="XMLID_17_">
	<g id="XMLID_691_" class="footer-cohete-1">
		<path id="XMLID_692_" class="footer-cohete-2" d="M159.3,285.6c-25.7,0-49.8-5.8-67.9-16.4c-18.2-10.6-28.2-24.7-28.2-39.7    c0-15,10-29.1,28.2-39.7c18.2-10.6,42.3-16.4,67.9-16.4c25.7,0,49.8,5.8,67.9,16.4c18.2,10.6,28.2,24.7,28.2,39.7    c0,15-10,29.1-28.2,39.7C209.1,279.8,184.9,285.6,159.3,285.6z M159.3,173.8c-52.8,0-95.8,25-95.8,55.8s43,55.8,95.8,55.8    s95.8-25,95.8-55.8S212.1,173.8,159.3,173.8z"/>
	</g>
	<g id="XMLID_687_" class="footer-cohete-1">
		<path id="XMLID_688_" class="footer-cohete-2" d="M156.5,269c-35.9,0-65-14.3-65-32c0-17.6,29.2-32,65-32s65,14.3,65,32    C221.5,254.6,192.3,269,156.5,269z M156.5,205.4c-35.7,0-64.7,14.2-64.7,31.6s29,31.6,64.7,31.6c35.7,0,64.7-14.2,64.7-31.6    S192.1,205.4,156.5,205.4z"/>
	</g>
	<linearGradient id="XMLID_306_" gradientUnits="userSpaceOnUse" x1="56.9104" y1="125.5246" x2="295.131" y2="125.5246">
		<stop offset="8.379892e-003" style="stop-color:#0C48A8"/>
		<stop offset="0.9637" style="stop-color:#257BB7"/>
	</linearGradient>
	<path id="XMLID_204_" class="footer-cohete-3" d="M292,165.4c-1.1-2.7-2.3-5.2-3.8-7.5l-2.6-13.5l0,0c2.1-12.3,1-25.4-4.1-38.1   c-6.4-16.2-18.1-29-32.2-37.2c-15.1-28-40.8-51.6-84-36.8c-14.7,5-28.3,10.8-40,16.3c-8.9-5.7-20.2-7.5-30.7-3.8   c-16.9,5.9-25.5,23.7-20.3,40.7l0,0l0,0c0.3,0.9,0.6,1.7,0.9,2.6c0.2,0.6,0.5,1.1,0.7,1.7c5.5,15.7,3.5,26.2-8.6,38.5   c-0.6,0.5-1.2,1.1-1.7,1.7c0,0,0,0,0,0l0,0l0,0c-8.4,8.9-11.3,22.3-6.3,34.9c7,17.7,38.7,29.2,56.4,23c0,0,7.8,8.5,40.1-13.1   c0.5-0.4-4.7-12.7-4.1-13.1c12.5,22.7,36,37.1,61,38.8c10.9,18.6,33.9,27.8,54.4,20.6C289.9,213,301,188.2,292,165.4z"/>
	<path id="XMLID_203_" class="footer-cohete-4" d="M51.7,160.7l-0.4-0.1c-1.4-0.5-2.1-1.9-1.6-3.3l2.5-7.7c0.5-1.4,1.9-2.1,3.3-1.6l0.4,0.1   c1.4,0.5,2.1,1.9,1.6,3.3l-1.4,7.7C55.8,160.4,53.1,161.1,51.7,160.7z"/>
	<path id="XMLID_202_" class="footer-cohete-4" d="M57.8,150c-0.3,4-2.8,5.7-5.8,3.7c-2.9-1.9-3.6-7-3.3-11c0.3-4,1.4-5.5,4.3-3.6   C55.9,141.2,58.1,146,57.8,150z"/>
	<path id="XMLID_201_" class="footer-cohete-5" d="M62.5,148.8c-0.7,4-4.7,5.8-7.3,3.5c-2.7-2.3-4.3-7.3-3.6-11.2c0.7-4,3.4-5.3,6.1-3.1   C60.3,140.2,63.2,144.8,62.5,148.8z"/>
	<path id="XMLID_200_" class="footer-cohete-4" d="M59.7,152.8c-1.4,0.7-3.2,0.7-4.5-0.5c-2.7-2.3-4.3-7.3-3.6-11.2c0.7-4-0.2-4.4,2.3-2   C54.5,139.7,52.8,150,59.7,152.8z"/>
	<path id="XMLID_199_" class="footer-cohete-6" d="M49.2,150.4c0,0,1.3,3.2,4.5,2.9c3.7-0.3,2-6.6,5.6-7.6c4.9-1.4,3.7-6.2,1.9-7.9   c-1.8-1.8-4.5-1.3-7.8-0.7C50,137.6,45.5,138.6,49.2,150.4z"/>
	<circle id="XMLID_198_" class="footer-cohete-5" cx="58.3" cy="147" r="1.8"/>
	<path id="XMLID_197_" class="footer-cohete-6" d="M58.9,148.4L58.9,148.4c-0.3,0-0.6-0.3-0.6-0.6l-0.5-3.9c0-0.3,0.8,0,1.1,0l0,0   c0.3,0,1.3-0.2,1.3,0.2l-0.7,3.7C59.5,148.2,59.3,148.4,58.9,148.4z"/>
	<path id="XMLID_196_" class="footer-cohete-7" d="M54.7,153c-1,0.6-2.3,0.7-3.4,0.2c-0.6-0.3-1.2-0.8-1.7-1.6c-1.4-2.4-4-10.3,0.1-13.2   c0,0,0.7-1.1,3.3-1.3c0,0,1.1-0.2,2.5-0.5c0.8-0.1,1.6-0.2,2.5-0.1l1.2,0.1C51,139.5,51,153.1,54.7,153L54.7,153z"/>
	<path id="XMLID_195_" class="footer-cohete-4" d="M58.1,146.9c0,0-0.4,0.1-0.4,0.5s0.2,0.4,0.2,0.4s-0.2,0.3-0.5,0.1c-0.3-0.3-0.5-0.8-0.1-1.3   C57.6,146.1,58.1,146.9,58.1,146.9z"/>
	<linearGradient id="XMLID_307_" gradientUnits="userSpaceOnUse" x1="6.2176" y1="235.7377" x2="93.0823" y2="235.7377">
		<stop offset="8.379892e-003" style="stop-color:#16B3E7"/>
		<stop offset="0.9637" style="stop-color:#257BB7"/>
	</linearGradient>
	<path id="XMLID_194_" class="footer-cohete-8" d="M12.5,209.7c-1,1.4-24.7,48.2,26.6,58.6c51.3,10.4,57.1-12.1,52.8-26.4   c-4.3-14.2-42.4-18.7-48.6-32.5C37.1,195.7,19.9,199.4,12.5,209.7z"/>
	
		<linearGradient id="XMLID_308_" gradientUnits="userSpaceOnUse" x1="438.3061" y1="64.5161" x2="492.3863" y2="64.5161" gradientTransform="matrix(0.7219 -0.692 0.692 0.7219 -128.4504 530.804)">
		<stop offset="8.379892e-003" style="stop-color:#16B3E7"/>
		<stop offset="0.9637" style="stop-color:#257BB7"/>
	</linearGradient>
	<path id="XMLID_193_" class="footer-cohete-9" d="M218.4,259c0.2,1.1,18.1,20.6,49.5,9.3c34.6-12.4,11.1-23,2.3-28.2   c-8.8-5.2-20.2-1.4-37.8,5.2C222.8,248.9,216.8,250.6,218.4,259z"/>
	<path id="XMLID_192_" class="footer-cohete-10" d="M223.5,240.9c-26.5,15.3-69.7,15.2-96.4-0.2c-26.7-15.4-26.8-40.3-0.3-55.7   c26.5-15.3,69.7-15.2,96.4,0.2S250,225.5,223.5,240.9z"/>
	<path id="XMLID_191_" class="footer-cohete-11" d="M206.2,247.3c-26.5,15.3-69.7,15.2-96.4-0.2s-26.8-40.3-0.3-55.7s69.7-15.2,96.4,0.2   S232.8,232,206.2,247.3z"/>
	<path id="XMLID_190_" class="footer-cohete-12" d="M91.1,186.6c0,0,5.2-3.4,13.6-17.3c14.7-24.4,28.8-32,65.6-37.8c40.1-6.3,74.4-14,86.3-44.6   c0,0,10.8,10.7,13.5,24c0,0,8.9,30-36,45.8c-20.5,7.2-57.4-1.6-77.5,4.1c-42.8,12.3-36.3,31.6-36.3,31.6L91.1,186.6z"/>
	<path id="XMLID_189_" class="footer-cohete-13" d="M206.2,241.7c-26.5,15.3-69.7,15.2-96.4-0.2s-26.8-40.3-0.3-55.7   c26.5-15.3,69.7-15.2,96.4,0.2S232.8,226.4,206.2,241.7z"/>
	<path id="XMLID_188_" class="footer-cohete-11" d="M190.1,229.4c-16.9,9.7-44.3,9.7-61.3-0.1c-17-9.8-17.1-25.7-0.2-35.4s44.3-9.7,61.3,0.1   C206.9,203.8,206.9,219.7,190.1,229.4z"/>
	<g id="XMLID_655_">
		<g id="XMLID_656_">
			<circle id="XMLID_187_" class="footer-cohete-14" cx="149.5" cy="166.7" r="8.7"/>
		</g>
	</g>
	<g id="XMLID_652_">
		<g id="XMLID_653_">
			<circle id="XMLID_186_" class="footer-cohete-14" cx="153" cy="177.8" r="10.4"/>
		</g>
	</g>
	<g id="XMLID_649_">
		<g id="XMLID_650_">
			<circle id="XMLID_185_" class="footer-cohete-14" cx="148.5" cy="168" r="12.1"/>
		</g>
	</g>
	<g id="XMLID_646_">
		<g id="XMLID_647_">
			<circle id="XMLID_184_" class="footer-cohete-14" cx="135.7" cy="184.4" r="15.5"/>
		</g>
	</g>
	<g id="XMLID_643_">
		<g id="XMLID_644_">
			<circle id="XMLID_183_" class="footer-cohete-14" cx="179.4" cy="201.2" r="12.1"/>
		</g>
	</g>
	<g id="XMLID_640_">
		<g id="XMLID_641_">
			<circle id="XMLID_182_" class="footer-cohete-14" cx="115.5" cy="191.5" r="12.1"/>
		</g>
	</g>
	<g id="XMLID_637_">
		<g id="XMLID_638_">
			<circle id="XMLID_181_" class="footer-cohete-14" cx="196.2" cy="211.7" r="18.4"/>
		</g>
	</g>
	<g id="XMLID_634_">
		<g id="XMLID_635_">
			<circle id="XMLID_180_" class="footer-cohete-14" cx="169.8" cy="224" r="15.5"/>
		</g>
	</g>
	<path id="XMLID_179_" class="footer-cohete-15" d="M208.9,198.2c2.2,9.2-3,18.7-12.2,21.7c-5.3,1.7-10.8,0.9-15.3-1.8   c-0.3,6.2-4.4,11.8-10.6,13.9c-5.5,1.8-11.2,0.4-15.2-3.3c2.4,7.4,10,11.9,17.8,10.4c6.4-1.3,11.1-6.4,12.2-12.6   c4.1,3.2,9.5,4.7,15,3.5c9.9-2,16.4-11.7,14.3-21.6C214,204.3,211.8,200.8,208.9,198.2z"/>
	<path id="XMLID_178_" class="footer-cohete-15" d="M133.3,193.4c-2.1-0.1-4-0.7-5.8-1.6c-1,4.8-5.5,8.3-10.6,8c-4.2-0.3-9.1-3.6-10.4-7.4   c-0.5,1.1-0.2,2.9-0.3,4.3c-0.4,5.6,4.6,10.2,10.1,10.6c5.1,0.4,9.6-3.1,10.6-8c1.8,0.9,3.7,1.4,5.8,1.6   c8.5,0.6,15.9-5.8,16.5-14.3c0.1-1.3,0-2.6-0.2-3.8C146.9,189.3,140.5,193.9,133.3,193.4z"/>
	<g id="XMLID_629_">
		<g id="XMLID_630_">
			<circle id="XMLID_177_" class="footer-cohete-14" cx="108.9" cy="201.3" r="10.1"/>
		</g>
	</g>
	<polygon id="XMLID_176_" class="footer-cohete-16" points="105.5,104.6 118.6,96.8 120.2,76.4 107.5,79.6  "/>
	<linearGradient id="XMLID_309_" gradientUnits="userSpaceOnUse" x1="157.2941" y1="153.6734" x2="157.5942" y2="186.8069">
		<stop offset="0" style="stop-color:#F77E05"/>
		<stop offset="4.753702e-003" style="stop-color:#F77F05"/>
		<stop offset="0.6816" style="stop-color:#FFCE43"/>
	</linearGradient>
	<polygon id="XMLID_175_" class="footer-cohete-17" points="142.4,141.2 141.1,204.8 174.3,189.2 173.2,130.7  "/>
	<path id="XMLID_174_" class="footer-cohete-18" d="M150,148.6c0,0-1.9,12,9.5,19.2c0,0,11.7-9.1,5-25.3C157.7,126.2,150,148.6,150,148.6z"/>
	<path id="XMLID_173_" class="footer-cohete-16" d="M127.4,85.4c-6.7-3.2-12.1-0.5-15.3,2c-1.5,1.2-3.7-1.3-4-4.2C104.8,44.9,131.4,54,131.4,54   L127.4,85.4z"/>
	<linearGradient id="XMLID_310_" gradientUnits="userSpaceOnUse" x1="132.7872" y1="141.1466" x2="180.1319" y2="141.1466">
		<stop offset="0" style="stop-color:#E90000"/>
		<stop offset="0.1958" style="stop-color:#D30001"/>
		<stop offset="0.6008" style="stop-color:#9C0004"/>
		<stop offset="0.6536" style="stop-color:#940004"/>
	</linearGradient>
	<path id="XMLID_172_" class="footer-cohete-19" d="M132.8,132.2c0,0,4.5,17.5,26.2,17.9c21.7,0.4,21.1-14.4,21.1-14.4L132.8,132.2z"/>
	<path id="XMLID_171_" class="footer-cohete-20" d="M122.4,92.9c-6.7-3.2-12.1-0.5-15.3,2c-1.5,1.2-3.7-1.3-4-4.2c-3.3-38.3,23.2-29.2,23.2-29.2   L122.4,92.9z"/>
	<path id="XMLID_170_" class="footer-cohete-0" d="M194.6,74c-2.3-22.1-18.1-47.3-27.3-61.4c-2.9-4.4-6.8-8.2-11.2-9.4   c-4.3,1.4-8.1,5.3-10.8,9.8c-8.7,14.5-23.6,40.2-25.1,62.4c-1.3,19.2,2,38.3,7.8,53.3l0.2,0.6c1.5,3.6,4.8,6.5,9.7,9.2   c5.8,3.2,13.2,5,20.7,5.4c7.5-0.7,14.7-2.7,20.5-6.1c4.8-2.9,8.1-6,9.4-9.6l0.2-0.5C194,112.3,196.6,93.1,194.6,74z"/>
	<path id="XMLID_169_" class="footer-cohete-21" d="M157.1,88.6c0.2,9.2-6.3,13.1-14.4,8.6c-8.1-4.5-14.9-15.6-15-24.8   c-0.2-9.2,6.3-13.1,14.4-8.6C150.2,68.2,156.9,79.3,157.1,88.6z"/>
	<g id="XMLID_610_">
		<g id="XMLID_611_">
			<path id="XMLID_168_" class="footer-cohete-14" d="M152.8,91.2c0.2,9.2-6.3,13.1-14.4,8.6c-8.1-4.5-14.9-15.6-15-24.8     c-0.2-9.2,6.3-13.1,14.4-8.6C145.9,70.8,152.7,81.9,152.8,91.2z"/>
		</g>
	</g>
	
		<linearGradient id="XMLID_311_" gradientUnits="userSpaceOnUse" x1="129.6689" y1="78.4723" x2="147.0056" y2="78.4723" gradientTransform="matrix(0.9998 -1.830000e-002 1.830000e-002 0.9998 -2.0728 6.3994)">
		<stop offset="8.379892e-003" style="stop-color:#16B3E7"/>
		<stop offset="0.9637" style="stop-color:#257BB7"/>
	</linearGradient>
	<path id="XMLID_167_" class="footer-cohete-22" d="M146.4,87.2c0.1,5.5-3.7,7.8-8.6,5.1s-8.8-9.3-8.9-14.8c-0.1-5.5,3.7-7.8,8.6-5.1   C142.3,75.1,146.3,81.7,146.4,87.2z"/>
	<path id="XMLID_166_" class="footer-cohete-20" d="M185.7,44.8c-5.8-12.6-13.2-24.2-18.4-32.2c-2.9-4.4-6.8-8.2-11.2-9.4   c-9.1,1.3-20.1,24.1-25.5,37C136.7,52.2,170.1,58.2,185.7,44.8z"/>
	<path id="XMLID_165_" class="footer-cohete-16" d="M180.7,135.3l-6.3-0.5c-1,4.4-2.1,8.8-3.5,13.3C181.1,144.3,180.7,135.3,180.7,135.3z"/>
	<path id="XMLID_164_" class="footer-cohete-21" d="M172.5,141.1c2.4-0.9,4.6-1.9,6.7-3.2c4.8-2.9,8.1-6,9.4-9.6l0.2-0.5   c5.3-15.2,7.9-34.5,5.9-53.6c-1.2-11-5.6-22.7-10.9-33.4c-5.4-10.9-16.1-10.8-11.7,7.3C178.5,74.5,181.3,106.8,172.5,141.1z"/>
	<path id="XMLID_163_" class="footer-cohete-16" d="M172.8,51.1c4.9-1.2,9.4-3.3,13-6.3c-5.6-12.2-17.3-38.3-29.6-41.7c0,0-0.1,0-0.1,0   C161.8,15.1,168.4,31.6,172.8,51.1z"/>
	<path id="XMLID_162_" class="footer-cohete-16" d="M187.9,82.1l-8.1,4.6l7.9,20.5l0,3.8c0.7,0.4,1.4,0.9,2,1.3l8.6,22.5l8.1-4.7l0,0   c0.5-0.2,1-0.6,1.2-1.3C216.3,101.9,187.9,82.1,187.9,82.1z"/>
	<path id="XMLID_161_" class="footer-cohete-16" d="M197.1,90.5l-14.5,9.2c12.5,9.8,19.1,17.1,12.9,45.2l11.2-6.8l0.4-0.3   c0.7-0.6,0.6-1.1,0.8-1.8C216.6,109.2,197.1,90.5,197.1,90.5z"/>
	<path id="XMLID_160_" class="footer-cohete-20" d="M179.5,115.6c7.3,4.3,12.5,11.9,15.4,17.2c1.3,2.4,4,2.8,4.6,0.7c8.7-27-19.7-46.7-19.7-46.7   L179.5,115.6z"/>
	<path id="XMLID_159_" class="footer-cohete-20" d="M193.1,129.9l0.9,14c0.1,1.3,1.9,1.5,2.3,0.3l3.2-10.7L193.1,129.9z"/>
	<path id="XMLID_158_" class="footer-cohete-20" d="M103.2,89.5l0.9,14c0.1,1.3,1.9,1.5,2.3,0.3l3.2-10.7L103.2,89.5z"/>
	<g id="XMLID_581_">
		<g id="XMLID_582_">
			<circle id="XMLID_157_" class="footer-cohete-14" cx="176.4" cy="197.6" r="15.5"/>
		</g>
	</g>
	<g id="XMLID_578_">
		<g id="XMLID_579_">
			<circle id="XMLID_156_" class="footer-cohete-14" cx="147" cy="226.1" r="10.1"/>
		</g>
	</g>
	<g id="XMLID_575_">
		<g id="XMLID_576_">
			<circle id="XMLID_155_" class="footer-cohete-14" cx="132.8" cy="225.6" r="10.1"/>
		</g>
	</g>
	<g id="XMLID_572_">
		<g id="XMLID_573_">
			<circle id="XMLID_154_" class="footer-cohete-14" cx="178.1" cy="182.3" r="8.7"/>
		</g>
	</g>
	<g id="XMLID_569_">
		<g id="XMLID_570_">
			<circle id="XMLID_153_" class="footer-cohete-14" cx="192.5" cy="199.3" r="8.7"/>
		</g>
	</g>
	<g id="XMLID_566_">
		<g id="XMLID_567_">
			<circle id="XMLID_152_" class="footer-cohete-14" cx="152.9" cy="207.2" r="15.5"/>
		</g>
	</g>
	<g id="XMLID_550_">
		<circle id="XMLID_151_" class="footer-cohete-23" cx="254.5" cy="92.8" r="32.9"/>
		
			<linearGradient id="XMLID_312_" gradientUnits="userSpaceOnUse" x1="225.5172" y1="50.8979" x2="280.7149" y2="50.8979" gradientTransform="matrix(0.9955 -9.480000e-002 9.480000e-002 0.9955 -1.8868 67.1322)">
			<stop offset="0.1397" style="stop-color:#43FFD9"/>
			<stop offset="1" style="stop-color:#059AF7"/>
		</linearGradient>
		<circle id="XMLID_150_" class="footer-cohete-24" cx="254.9" cy="93.8" r="27.6"/>
		<path id="XMLID_149_" class="footer-cohete-25" d="M229.6,105c4.2,9.4,13.6,16.1,24.6,16.4c1.1,0,2.2,0,3.2-0.1    C241.3,117.8,240.9,104.4,229.6,105z"/>
		<g id="XMLID_560_">
			<g id="XMLID_561_" class="footer-cohete-26">
				<circle id="XMLID_148_" class="footer-cohete-27" cx="251.5" cy="84.6" r="5.4"/>
			</g>
		</g>
		<g id="XMLID_557_">
			<g id="XMLID_558_" class="footer-cohete-26">
				<circle id="XMLID_147_" class="footer-cohete-27" cx="260.7" cy="77.9" r="3.1"/>
			</g>
		</g>
		<g id="XMLID_554_">
			<g id="XMLID_555_" class="footer-cohete-26">
				<circle id="XMLID_146_" class="footer-cohete-27" cx="266.1" cy="88.4" r="4.2"/>
			</g>
		</g>
		<path id="XMLID_145_" class="footer-cohete-25" d="M229.5,83.1c0,0-0.7,10.8,6.2,14.8c6.9,4,12.2,1.9,21.5,11.3c9.3,9.4,22.2-2.6,22.2-2.6    l2.4-6.3c0,0-14.5,10.7-18.9,5.1c-11.5-15-18.4-12.8-24.8-15.4c-6.3-2.6-3.1-15.3-3.1-15.3L229.5,83.1z"/>
		<path id="XMLID_551_" class="footer-cohete-28" d="M242.3,69.2c0,0-20.6-7.5-27.7,0.9c-1.8,2.1-1.3,5.4,0.1,8.9c3.1,7.6,12.6,17.2,26,25.9    c0,0,0.1,0.1,0.1,0.1c0.8,0.5,1.7,1.1,2.5,1.6c0.1,0,0.1,0.1,0.2,0.1c0.9,0.5,1.8,1.1,2.7,1.6c0.8,0.5,1.6,1,2.5,1.4    c0.2,0.1,0.5,0.3,0.7,0.4c0.7,0.4,1.3,0.7,2,1.1c0.2,0.1,0.3,0.2,0.5,0.3c0.8,0.4,1.7,0.9,2.5,1.3c0.1,0.1,0.3,0.1,0.4,0.2    c0.7,0.4,1.4,0.7,2.2,1c0.2,0.1,0.3,0.2,0.5,0.2c1.7,0.8,3.4,1.5,5,2.2c0.1,0,0.2,0.1,0.4,0.1c0.8,0.3,1.5,0.6,2.3,0.9    c0.1,0,0.1,0,0.2,0.1c0.9,0.3,1.7,0.6,2.5,0.9l0,0l0,0c3,1,5.9,1.8,8.6,2.4c9.5,2,16.1,0.8,18.6-3.4c3.3-5.6-1.9-15-12.6-24.6    l-0.1,4.3c4.9,4.8,8.3,9.2,9.7,12.8c1,2.5,1.2,4.5,0.3,5.9c-1.7,2.8-7.4,3.6-15.2,1.9c-2-0.4-4.1-1-6.3-1.6    c-2.7-0.8-5.5-1.9-8.3-3c-0.1,0-0.1,0-0.2-0.1c-0.9-0.4-1.8-0.8-2.7-1.2c0,0,0,0-0.1,0c-0.9-0.4-1.8-0.8-2.7-1.3    c-0.1-0.1-0.3-0.1-0.4-0.2c-0.9-0.4-1.7-0.9-2.6-1.3c0,0-0.1,0-0.1-0.1c-0.9-0.5-1.8-0.9-2.6-1.4c-0.2-0.1-0.4-0.2-0.6-0.3    c-0.9-0.5-1.8-1-2.6-1.5c-0.9-0.5-1.8-1.1-2.7-1.6c-0.2-0.1-0.4-0.3-0.7-0.4c-0.9-0.6-1.7-1.1-2.6-1.7c0,0,0,0,0,0    c-0.8-0.6-1.7-1.1-2.5-1.7c-0.2-0.1-0.4-0.3-0.6-0.4c-0.8-0.6-1.6-1.1-2.3-1.7l0,0c-0.8-0.6-1.5-1.1-2.2-1.7    c-0.2-0.1-0.3-0.3-0.5-0.4c-1.4-1.1-2.8-2.3-4-3.4c-0.1-0.1-0.3-0.2-0.4-0.4c-0.6-0.6-1.2-1.1-1.8-1.7v0    c-8.5-8.1-12.3-15.4-10.3-19c2-3.4,10-3.7,20.9-0.5c0.2,0.1,0.4,0.1,0.6,0.2C238.8,71.4,241.6,69.5,242.3,69.2z"/>
	</g>
	<circle id="XMLID_143_" class="footer-cohete-12" cx="93.9" cy="136" r="16.3"/>
	<circle id="XMLID_142_" class="footer-cohete-14" cx="265.2" cy="165.4" r="0.6"/>
	<circle id="XMLID_141_" class="footer-cohete-14" cx="250.9" cy="198.7" r="0.6"/>
	<circle id="XMLID_140_" class="footer-cohete-14" cx="92.7" cy="108.6" r="0.6"/>
	<circle id="XMLID_139_" class="footer-cohete-14" cx="92.7" cy="55.7" r="0.6"/>
	<circle id="XMLID_138_" class="footer-cohete-14" cx="212.2" cy="55.2" r="0.6"/>
	<circle id="XMLID_137_" class="footer-cohete-14" cx="217.6" cy="144.7" r="0.6"/>
	<circle id="XMLID_136_" class="footer-cohete-14" cx="112.5" cy="121.8" r="0.6"/>
	<circle id="XMLID_135_" class="footer-cohete-14" cx="21.1" cy="245.4" r="0.6"/>
	<circle id="XMLID_134_" class="footer-cohete-14" cx="213.5" cy="174.8" r="0.6"/>
	<circle id="XMLID_133_" class="footer-cohete-14" cx="271.8" cy="247.8" r="0.6"/>
	<circle id="XMLID_132_" class="footer-cohete-14" cx="254.3" cy="263" r="0.6"/>
	<circle id="XMLID_131_" class="footer-cohete-14" cx="60.3" cy="231" r="0.6"/>
	<circle id="XMLID_130_" class="footer-cohete-14" cx="69.4" cy="254.3" r="0.6"/>
	<circle id="XMLID_129_" class="footer-cohete-14" cx="69.4" cy="146.4" r="0.6"/>
	<g id="XMLID_383_">
		<g id="XMLID_399_">
			<path id="XMLID_128_" class="footer-cohete-29" d="M256.6,164.1l-7.1,8.9l-16,1.2l1.2,3.3l14.3,0.1c1.7,0,3.2-0.8,4.2-2.2l8-11.7L256.6,164.1     z"/>
			<path id="XMLID_127_" class="footer-cohete-30" d="M253.3,174.3c-0.9,1.4-2.5,2.2-4.2,2.2l-10.6,1l-3.7,0l14.3,0.1c1.7,0,3.2-0.8,4.2-2.2     l8-11.7l-0.7,0.1L253.3,174.3z"/>
			<g id="XMLID_527_">
				<linearGradient id="XMLID_313_" gradientUnits="userSpaceOnUse" x1="250.1046" y1="165.4211" x2="266.9241" y2="165.4211">
					<stop offset="0.3184" style="stop-color:#FFCE43"/>
					<stop offset="0.9952" style="stop-color:#F77F05"/>
					<stop offset="1" style="stop-color:#F77E05"/>
				</linearGradient>
				<path id="XMLID_126_" class="footer-cohete-31" d="M266.6,158.9c-2.7,5.3-7.8,10.5-11.5,15.2c-1.8,2.2-6.4-1.3-4.6-3.6      c3.5-4.4,5-6.7,7.9-11.6c2.3-3.9,9.7-3.7,8.4-1.1L266.6,158.9z"/>
			</g>
			<g id="XMLID_519_">
				<g id="XMLID_331_">
					<g id="XMLID_333_">
						<path id="XMLID_334_" class="footer-cohete-32" d="M266.6,158.9c-2.7,5.3-7.8,10.5-11.5,15.2c-1.8,2.2-2.7-1.3-0.9-3.6        c3.5-4.4,4.6-4.9,7.4-9.7c2.3-3.9,6.5-5.5,5.2-3L266.6,158.9z"/>
					</g>
				</g>
			</g>
			<g id="XMLID_517_">
				<path id="XMLID_124_" class="footer-cohete-14" d="M255.1,174C255.1,174,255.1,174,255.1,174c-4.4-0.3-4.3-4-4.3-4c0-0.1,0-0.1,0.1-0.1      c0,0,0,0,0,0c0.1,0,0.1,0,0.1,0.1c0,0.1-0.1,3.5,4.1,3.8c0.1,0,0.1,0.1,0.1,0.1C255.2,174,255.2,174,255.1,174z"/>
			</g>
			<g id="XMLID_502_">
				<path id="XMLID_123_" class="footer-cohete-33" d="M260.9,240.9l-0.4,0.2c-0.2,0.1-0.5,0-0.6-0.2l0,0c-0.1-0.2,0-0.5,0.2-0.6l0.4-0.2      c0.2-0.1,0.5,0,0.6,0.2l0,0C261.2,240.5,261.1,240.8,260.9,240.9z"/>
				<path id="XMLID_122_" class="footer-cohete-33" d="M260,241.1l-1.6-1.1c-0.2-0.1-0.2-0.4-0.1-0.6l0,0c0.1-0.2,0.4-0.2,0.6-0.1l1.6,1.1      c0.2,0.1,0.2,0.4,0.1,0.6l0,0C260.5,241.1,260.2,241.2,260,241.1z"/>
				<g id="XMLID_503_">
					<path id="XMLID_505_" class="footer-cohete-33" d="M255,235.5c-1-0.1-2.6,0.4-2.8,1l1.4,3.1l-0.1,0.3c0.5,1.5,2.1,8.6,2.9,10.8       c0.4,1.1,1.8,0.1,1.8,0.1c2.4-2.4,3.1-6.1,3.1-6.1c0-1.8-1.7-1.7-2.6-4.2c-0.2-0.4-0.1-1.1,0.2-1l1.8,1.4l0.3-0.7       c0,0-2.5-2.2-4-3.9C256.3,235.7,255.5,235.4,255,235.5z"/>
					<path id="XMLID_120_" class="footer-cohete-29" d="M251.7,236.7l0.2,1.9c0.7,2.9,1.6,4.3,3.3,7.7c0,0,5.4-1.3,0.7-8.6       C253.8,233.3,251.7,236.7,251.7,236.7z"/>
				</g>
			</g>
			<path id="XMLID_119_" class="footer-cohete-34" d="M247,206.9c0,0,7.7,15,15.5,11.4s2.9-19.4,2.9-19.4L247,206.9z"/>
			<path id="XMLID_118_" class="footer-cohete-29" d="M262.7,195.2l-19,9.1c-2.6,1.2-3.8,4.3-2.7,7l12,29.7l3.3-1.1c-1.5-12.2-1.2-21.7-8.6-26.8     l20.3-12.6L262.7,195.2z"/>
			<path id="XMLID_117_" class="footer-cohete-5" d="M245.1,211c1.1-2.5,10.7-7.9,10.7-7.9l-1.5-4l-10.6,5.1c-2.6,1.2-3.8,4.3-2.7,7l9.4,23.2     c1.6,0.4,3.4-0.1,2.1-5.6C250.5,219.7,244,213.5,245.1,211z"/>
			<path id="XMLID_116_" class="footer-cohete-5" d="M277.3,204.4l-18.9,25.1c-2.2,6.4-8.5,14-17.4,22.2l-2.7-2l17.4-29.4l15.9-27.1L277.3,204.4     z"/>
			<path id="XMLID_115_" class="footer-cohete-29" d="M258.6,215.4c0,0,4.4,4.9,4,8.5l2.8-3.7l1.4-6l-5.7-3.3L258.6,215.4z"/>
			<path id="XMLID_114_" class="footer-cohete-29" d="M242.4,205.1c0,0,7.5,2.6,8.5,3.4s2.4-0.3,2.4-0.3l1.1-0.9c0,0-6.3-3.3-10.5-3.2     L242.4,205.1z"/>
			<path id="XMLID_113_" class="footer-cohete-29" d="M277.3,204.4l-18.9,25.1c-2.2,6.4-8.5,14-17.4,22.2l0.4-1c5.7-4.6,10.3-13.2,14.7-21.8     c2.2-6.7,11.4-15.8,18.9-27.5L277.3,204.4z"/>
			<path id="XMLID_112_" class="footer-cohete-35" d="M260.6,183.7c0,0,3.1-2.8,3.1-2.8c0,0-4.3-0.4,1.4,1.7c1.5,0.5,6.3,1.2,7.4,2.5     c2.4,2.8,6.5,1.9,7.3,9c0.4,3.2-0.7,8.5-1.8,9.9l-11.6,16.3c0,0-6-14.8-23-16l6.8-6.8c3.5-4.9,6.7-6.3,8.7-9.2     c0.6-0.8,0.4-2.9,0.7-3.9C259.8,183.7,260.5,184.1,260.6,183.7z"/>
			<g id="XMLID_487_">
				<path id="XMLID_111_" class="footer-cohete-36" d="M263.7,180.9c0,0-2.9-0.2-0.8,0.8C263.4,181.2,263.7,180.9,263.7,180.9z"/>
				<path id="XMLID_110_" class="footer-cohete-37" d="M251.9,200.3c4.4-6.1,8.4-7.9,10.8-11.5c0.7-1,0.5-3.7,0.9-4.8c0.3-0.7,1.1-0.3,1.3-0.7      c0,0,0.3-0.3,0.7-0.6c-0.1,0-0.3-0.1-0.4-0.1c-1.1-0.4-1.8-0.7-2.3-0.9c-0.9,0.8-2.2,2-2.2,2c-0.1,0.4-0.8,0-1,0.6      c-0.3,0.9-0.2,3.1-0.7,3.9c-2,2.9-5.2,4.3-8.7,9.2l-6.8,6.8c1.4,0.1,2.8,0.3,4,0.6L251.9,200.3z"/>
			</g>
			<path id="XMLID_109_" class="footer-cohete-35" d="M279.7,195.7c-0.8,8.1-6.1,8.8-11.2,5.6c-5.2-3.2-7.9-10.2-7.7-16.3c0,0,3.2-8.9,8.4-5.7     C274.2,182.5,280.6,186.3,279.7,195.7z"/>
			<path id="XMLID_108_" class="footer-cohete-38" d="M271.1,186.7c0,0,3,0.9,3.3,5.8c0.3,4.1-0.8,4.4-5.3,10.5c-2.6,3.5-6.4,3.7-6.7,5.8     c-0.3,2.1-0.7,4.4-0.7,4.4s3.4,4.3,4.6,7l12-17c0,0,5.1-11.2-1.4-17.7L271.1,186.7z"/>
			<g id="XMLID_468_">
				<path id="XMLID_107_" class="footer-cohete-33" d="M244,255.9l-0.4-0.2c-0.2-0.1-0.3-0.4-0.2-0.6l0,0c0.1-0.2,0.4-0.3,0.6-0.2l0.4,0.2      c0.2,0.1,0.3,0.4,0.2,0.6l0,0C244.5,255.9,244.2,256,244,255.9z"/>
				<path id="XMLID_106_" class="footer-cohete-33" d="M243.3,255.3l-0.1-2.1c0-0.2,0.2-0.5,0.4-0.5l0,0c0.2,0,0.5,0.2,0.5,0.4l0.1,2.1      c0,0.2-0.2,0.5-0.4,0.5l0,0C243.5,255.8,243.3,255.6,243.3,255.3z"/>
				<g id="XMLID_469_">
					<path id="XMLID_471_" class="footer-cohete-33" d="M245,247.6c-0.5-1-1.9-2-2.6-1.8l-1.8,3l-0.3,0.1c-1,1.3-6.1,7-7.5,9.1       c-0.7,1,1,1.6,1,1.6c3.6,0.6,7.1-1.1,7.1-1.1c1.5-1.1,0.5-2.5,2-4.8c0.3-0.4,0.9-0.8,1-0.4l-0.1,2.4l0.8-0.2       c0,0,0.4-3.5,0.8-5.8C245.6,248.8,245.4,248,245,247.6z"/>
					<path id="XMLID_104_" class="footer-cohete-5" d="M241.9,245.6l-1.5,1.3c-2,2.4-2.7,4.1-4.5,7.5c0,0,5.5,2.5,8.9-6       C247.3,243.9,241.9,245.6,241.9,245.6z"/>
				</g>
			</g>
			<path id="XMLID_103_" class="footer-cohete-6" d="M276.4,139.8c0,0,3,2.6,6.8,2.9c3.8,0.4,6.8,3,7.8,8.8s14.9-0.1,13.1,10.6     c-1.8,10.7-5.5,2.9-9.6,6.1c-4.1,3.2-5.3,10.1-10.1,7.6c-4.7-2.5-17.5,0.1-17.7-8.9C266.8,157.9,276.4,139.8,276.4,139.8z"/>
			<path id="XMLID_102_" class="footer-cohete-7" d="M275.9,150.4c0,0,4.4,1.3,5.1,6.1c0.6,4.8,4.9,1.3,6.5,3.6c1.6,2.3,7.7,5.5,5.5,9.7     c-2.2,4.2-5.5,6.8-5.5,6.8s-2.3-0.1-3.9-1.3c-1.6-1.2-10.1-0.1-10.1-0.1l0.3-11.6L275.9,150.4z"/>
			<linearGradient id="XMLID_315_" gradientUnits="userSpaceOnUse" x1="258.0383" y1="171.5778" x2="285.477" y2="171.5778">
				<stop offset="0.3184" style="stop-color:#FFCE43"/>
				<stop offset="0.9952" style="stop-color:#F77F05"/>
				<stop offset="1" style="stop-color:#F77E05"/>
			</linearGradient>
			<path id="XMLID_101_" class="footer-cohete-39" d="M283.4,163.5c-0.6-0.7-10-5.6-15-6.7c-2.5-0.5-3.1-1.3-4.1,1c-0.5,1.1-2.3,4.5-2.9,5.6     c-0.6,0.6-3.6,3.6-3.3,8.1c0.2,2.7,1.5,4.7,2.7,6c0,3.4,0.1,6.4,0.2,7c0,0,6.5,5.1,15.2,0.3l3.9-10.4l2-2.9     c0.5-0.3,2.2,0.2,2.2,0.2C284.5,168.9,287.4,168.2,283.4,163.5z"/>
			
				<ellipse id="XMLID_100_" transform="matrix(0.9736 0.2283 -0.2283 0.9736 40.5908 -56.5257)" class="footer-cohete-40" cx="264.6" cy="147.2" rx="2.7" ry="3.4"/>
			<path id="XMLID_99_" class="footer-cohete-5" d="M284.7,171.8l5.8,9.8L286,196l3.4,1l5.1-13.3c0.6-1.6,0.4-3.3-0.6-4.7l-8.1-11.6L284.7,171.8     z"/>
			<path id="XMLID_98_" class="footer-cohete-29" d="M293.9,179.2l-8.1-11.6l-0.4,1.5l6.3,9.1c0.9,1.4,1.4,3.8,1.1,5.6l-2.8,11.7l-0.7,1.7     l5.1-13.3C295.1,182.3,294.9,180.5,293.9,179.2z"/>
			<path id="XMLID_97_" class="footer-cohete-5" d="M269.2,156.8c0,0-4.5,4.4-0.8,7.8c3.7,3.3,10.5-3.7,10.5-3.7     C275.5,158.6,272.3,157.1,269.2,156.8z"/>
			<path id="XMLID_96_" class="footer-cohete-5" d="M271.1,159.5l-1.9-8.2l5,1.8l1.5,6.7C276.2,160.8,272.5,163.6,271.1,159.5z"/>
			<path id="XMLID_95_" class="footer-cohete-5" d="M269.3,156.5l-1.6-0.3c-1.8-0.1-2.7-2.1-2.8-4.8l0.2-8.1c0.4-2.4,3.3-4.1,5.7-3.7l1.6,0.3     c2.4,0.4,4,2.8,3.6,5.2l-1.4,7.9C274,155.4,271.7,157,269.3,156.5z"/>
			<path id="XMLID_94_" class="footer-cohete-30" d="M269.3,156.5l-1.6-0.3c3-0.2,4.6-2.1,4.3-4.9c-3.8-2.4-5.8-5.2-7-8c0.4-2.4,3.3-4.1,5.7-3.7     l1.6,0.3c2.4,0.4,4,2.8,3.6,5.2l-1.4,7.9C274,155.4,271.7,157,269.3,156.5z"/>
			<path id="XMLID_93_" class="footer-cohete-30" d="M269.8,157.2c0.7,0.2,2.4,0,3.2-0.3c-1.6,2.3-1.1,3.9-4,4.5L269.8,157.2z"/>
			<path id="XMLID_92_" class="footer-cohete-6" d="M266.3,143.3c4.4,7.6,4.5,5.8,8.6,7.3l-0.5,1.2c-0.5,1.2,0,0.1,0.6,1.3l0.8,0.3     c0,0,10.3-5.3,1.8-12.7c-5.8-5-13.6-1.1-12.9,4.9L266.3,143.3z"/>
			<path id="XMLID_91_" class="footer-cohete-5" d="M275.3,153.8c-0.8,0.4-1.6,0.1-1.7-0.8c-0.1-0.9,0.5-1.9,1.3-2.4s1.6-0.1,1.7,0.8     S276.1,153.4,275.3,153.8z"/>
			<g id="XMLID_443_">
				<linearGradient id="XMLID_323_" gradientUnits="userSpaceOnUse" x1="279.847" y1="171.9464" x2="294.3861" y2="171.9464">
					<stop offset="0.3184" style="stop-color:#FFCE43"/>
					<stop offset="0.9952" style="stop-color:#F77F05"/>
					<stop offset="1" style="stop-color:#F77E05"/>
				</linearGradient>
				<path id="XMLID_90_" class="footer-cohete-41" d="M281.8,162.3c5.5,3.5,9.1,9.1,12.3,14.8c1.5,2.6-3.1,6.3-4.5,3.6c-3.1-5.5-3.5-7-8.4-10.7      C278.5,168,280.4,161.8,281.8,162.3L281.8,162.3z"/>
			</g>
			<polygon id="XMLID_89_" class="footer-cohete-32" points="260.7,177.5 263.7,177.6 260.8,179.5    "/>
			<path id="XMLID_88_" class="footer-cohete-32" d="M272.5,185L272.5,185c0.8-2.2-0.3-4.6-2.4-5.6l-2.3-1c0,0,8.7,3.5,10.7-5.7     c0,0,1.1-2,3.4-1.1l-5.4,12.3L272.5,185z"/>
			<g id="XMLID_435_">
				<path id="XMLID_87_" class="footer-cohete-14" d="M270.9,165.8c-0.6,0-1.2-0.1-1.8-0.4c-1.1-0.5-1.9-1.3-2.2-2.3c-0.8-2.4,0.9-5.2,1-5.3      c0.1-0.2,0.3-0.2,0.5-0.1c0.2,0.1,0.2,0.3,0.1,0.5c0,0-1.6,2.7-0.9,4.7c0.3,0.8,0.9,1.4,1.8,1.8c2.2,0.9,5.2-0.4,9-4l0.2-0.2      c0.1-0.1,0.4-0.1,0.5,0c0.1,0.1,0.1,0.4,0,0.5l-0.2,0.2C277.7,162.5,274.2,165.8,270.9,165.8z"/>
			</g>
			<path id="XMLID_86_" class="footer-cohete-32" d="M281.1,162c0,0,3.3,1.9,5.5,4.7c2.2,2.8,2.4,4.4,4.7,7.9c2.3,3.5,2.4,5.6,2.6,5.2     c0,0,0.7-1.1,0.5-2.1c0,0,0.1-0.7-3.7-6.5S283.7,163.1,281.1,162z"/>
			<g id="XMLID_430_">
				<path id="XMLID_85_" class="footer-cohete-14" d="M289.2,179.8c-0.1,0-0.1,0-0.1-0.1c0-0.1,0-0.1,0.1-0.1c0.2,0,3.7-0.3,3.8-3.8      c0-0.1,0-0.1,0.1-0.1c0,0,0,0,0,0c0.1,0,0.1,0,0.1,0.1C293.2,179.5,289.3,179.8,289.2,179.8      C289.2,179.8,289.2,179.8,289.2,179.8z"/>
			</g>
			<g id="XMLID_428_">
				<path id="XMLID_84_" class="footer-cohete-42" d="M267.8,188.4c-5.1-0.1-7.8-2.9-7.9-3.1c-0.5-0.6-0.5-1.5,0.1-2c0.6-0.5,1.4-0.5,2,0.1      c0.2,0.2,5,4.9,14.4-0.1c0.7-0.4,1.5-0.1,1.9,0.6c0.4,0.7,0.1,1.5-0.6,1.9C273.7,187.8,270.4,188.4,267.8,188.4z"/>
			</g>
			<path id="XMLID_83_" class="footer-cohete-15" d="M266,188.5l-1.9-0.6c-0.9-0.3-1.6-1.3-1.5-2.2l0,0c0-0.9,0.8-1.5,1.6-1.2l1.9,0.6     c0.9,0.3,1.6,1.3,1.5,2.2l0,0C267.6,188.2,266.9,188.8,266,188.5z"/>
			<g id="XMLID_422_">
				<g id="XMLID_423_">
					
						<ellipse id="XMLID_82_" transform="matrix(0.9736 0.2283 -0.2283 0.9736 41.9346 -58.8139)" class="footer-cohete-43" cx="275.1" cy="151.8" rx="2.7" ry="3.4"/>
				</g>
			</g>
			<g id="XMLID_415_">
				<g id="XMLID_335_">
					<g id="XMLID_336_">
						
							<ellipse id="XMLID_337_" transform="matrix(0.9736 0.2283 -0.2283 0.9736 42.0845 -58.8666)" class="footer-cohete-44" cx="275.5" cy="152.4" rx="1.6" ry="2.1"/>
					</g>
				</g>
			</g>
			<g id="XMLID_412_">
				<g id="XMLID_413_">
					<path id="XMLID_80_" class="footer-cohete-43" d="M266.4,139.9c0,0,9-0.9,8.5,9l1.2,0.2c0,0,1.2-7.1-3.6-9.3       C267.7,137.6,266.4,139.9,266.4,139.9z"/>
				</g>
			</g>
			<g id="XMLID_409_">
				<g id="XMLID_410_">
					
						<ellipse id="XMLID_79_" transform="matrix(0.8586 0.5126 -0.5126 0.8586 117.8554 -114.7264)" class="footer-cohete-43" cx="266.9" cy="156.3" rx="1.4" ry="0.9"/>
				</g>
			</g>
			<g id="XMLID_407_">
				<path id="XMLID_78_" class="footer-cohete-43" d="M270.3,157.7c-1.8,0-3.2-1-3.3-1c-0.2-0.1-0.2-0.4-0.1-0.6c0.1-0.2,0.4-0.2,0.6-0.1      c0,0,1.8,1.3,3.7,0.8c1.3-0.3,2.3-1.4,3.1-3c0.1-0.2,0.3-0.3,0.6-0.2c0.2,0.1,0.3,0.3,0.2,0.6c-0.9,1.9-2.1,3.1-3.7,3.5      C271,157.7,270.6,157.7,270.3,157.7z"/>
			</g>
			<path id="XMLID_77_" class="footer-cohete-18" d="M258.4,173.4c0,0-1-3.4,0.6-6.5c1.6-3.1,2.5-3.5,2.5-3.5l2.6-5.1l-0.7,2.1     c-0.7,2-1.7,3.9-2.8,5.7C259.5,167.6,258.3,170.2,258.4,173.4z"/>
			<g id="XMLID_400_">
				<path id="XMLID_76_" class="footer-cohete-14" d="M266.4,152.1l2,0.9c0.1,0,0.1,0.1,0.1,0.2c0,0.4-0.2,1.1-1.3,0.7c-0.7-0.3-1-1.1-1-1.6      C266.2,152.2,266.3,152.1,266.4,152.1z"/>
			</g>
		</g>
		<g id="XMLID_384_">
			<path id="XMLID_75_" class="footer-cohete-45" d="M255.5,180.8l-1.8-0.6l-0.2-0.2l-0.1-0.2l-13.2-6.9c-0.2-0.1-0.4-0.1-0.6,0l-5,3l0-0.1     l-1,0.4l0,0.4h0c0,0,0.1,0.1,0.1,0.1l13.8,7.2c0,0,0,0,0,0.1c0.3,1.1,0.8,2,1.7,1.4l5.6-3.3C255.3,181.8,255.5,181.4,255.5,180.8     L255.5,180.8z"/>
			<path id="XMLID_74_" class="footer-cohete-46" d="M248.1,184.9l-15.8-8.2c-0.2-0.1-0.2-0.3,0-0.4l6.7-3.9c0.2-0.1,0.5-0.1,0.7,0l15.8,8.2     c0.2,0.1,0.2,0.3,0,0.4l-6.7,3.9C248.6,185,248.3,185,248.1,184.9z"/>
			<path id="XMLID_73_" class="footer-cohete-45" d="M248.5,179.6l-3.8-2c0,0,0-0.1,0-0.1l1.6-1c0,0,0.1,0,0.2,0l3.8,2c0,0,0,0.1,0,0.1l-1.6,1     C248.6,179.7,248.6,179.7,248.5,179.6z"/>
			<path id="XMLID_72_" class="footer-cohete-14" d="M246.7,175.7c-0.1-0.4-0.5-0.8-0.8-1l-15.7-8c-0.1-0.1-0.3-0.1-0.3,0l0,0l0,0     c0,0-0.1,0-0.1,0.1l-0.4,0.5l0.4,0l2.4,8.7c0.1,0.4,0.5,0.8,0.8,1l14.9,7.6l0.5,0.5l0.1,0.1c0.3,0.1,0.9-0.4,0.9-0.4L246.7,175.7     z"/>
			<path id="XMLID_71_" class="footer-cohete-47" d="M248.2,185.4l-15.7-8c-0.3-0.2-0.7-0.6-0.8-1l-2.4-8.8c-0.1-0.4,0.1-0.5,0.4-0.4l15.7,8     c0.3,0.2,0.7,0.6,0.8,1l2.4,8.8C248.7,185.4,248.5,185.5,248.2,185.4z"/>
			<path id="XMLID_70_" class="footer-cohete-14" d="M239.4,176.8c0.1,0.5-0.3,0.6-1,0.2c-0.7-0.3-1.3-1-1.4-1.5c-0.1-0.5,0.3-0.6,1-0.2     C238.6,175.7,239.2,176.4,239.4,176.8z"/>
		</g>
	</g>
	<g id="XMLID_378_">
		<path id="XMLID_69_" class="footer-cohete-48" d="M82.5,171.7l-7.2-3.2c-0.4-0.2-0.7-0.8-0.6-1.3l3.2-13.7c0.1-0.5,0.6-0.8,1-0.6l7.2,3.1    c0.4,0.2,0.7,0.8,0.6,1.3l-3.2,13.6c-0.1,0.3-0.2,0.4-0.5,0.6L82.5,171.7z"/>
		<path id="XMLID_68_" class="footer-cohete-48" d="M80.3,159.2c0,0-5.8,8.6-5.6,8.1l3.1-14.1l0.6-0.2c0.2-0.1,0.3-0.1,0.5,0l7.2,3.1    c0.2,0.1,0.4,0.3,0.5,0.5L80.3,159.2z"/>
		<path id="XMLID_67_" d="M81.8,171.8l-7.2-3.1c-0.4-0.2-0.7-0.8-0.5-1.3l3.2-13.7c0.1-0.5,0.6-0.8,1-0.6l7.1,3.1    c0.4,0.2,0.7,0.8,0.5,1.3l-3.2,13.7C82.7,171.7,82.3,172,81.8,171.8z"/>
		<path id="XMLID_66_" class="footer-cohete-49" d="M82,169.5l-6.7-2.9l2.8-12l7,3l-2.9,11.8C82.1,169.4,82.1,169.5,82,169.5z"/>
	</g>
	<path id="XMLID_65_" class="footer-cohete-50" d="M69.2,175.2l11.9-7l1.6,2.8L72,178.3c-1.2,0.9-2.8,1-4.2,0.5L69.2,175.2z"/>
	<path id="XMLID_64_" class="footer-cohete-50" d="M85.6,165.2L85.6,165.2c-1-0.7-2.4-0.6-3.1,0.4l-2.2,2.8c-0.7,1-0.6,2.4,0.4,3.1l0,0   c1,0.7,2.4,0.6,3.1-0.4l2.2-2.8C86.7,167.3,86.5,165.9,85.6,165.2z"/>
	<path id="XMLID_63_" class="footer-cohete-50" d="M27,183.5L27,183.5c-0.9-0.8-2.3-0.7-3.1,0.3l-2.3,2.7c-0.8,0.9-0.7,2.3,0.3,3.1l0,0   c0.9,0.8,2.3,0.7,3.1-0.3l2.3-2.7C28.1,185.7,27.9,184.3,27,183.5z"/>
	<path id="XMLID_62_" class="footer-cohete-15" d="M43.9,245.6l1.5-5.4c2.1-0.9,3.7-1.2,4.2,1.2l-1.5,5.3L43.9,245.6z"/>
	<path id="XMLID_61_" class="footer-cohete-51" d="M49.5,252.7l-1-7.8c-0.8-1.4-2-2.2-3.9-2.1c-0.9,0.2-1.6,0.4-2.7,1.6c-0.9,1-0.4,3.2,0,4.4   l2.6,5.2c1.8,3.8,3.3,3.6,4.5,3.3l0,0C50.5,256.8,50.3,255.1,49.5,252.7z"/>
	<g id="XMLID_363_">
		<path id="XMLID_60_" class="footer-cohete-52" d="M51.8,192.1c1,8,1,22-1.9,29.3c-2.1,5.2-5.1,12.8-7,18.3c-0.2,0.4,7,2.7,7.1,2.3    c1.9-5.6,5.1-12.7,7.2-18.1c3-7.7,5.6-15.8,5.7-24.1c0.1-3.8-5.9-4.3-6-0.5L51.8,192.1z"/>
	</g>
	<path id="XMLID_59_" class="footer-cohete-53" d="M60.2,196.7c-1.3,8.9-4.2,17.6-7.4,25.8c-2.1,5.4-5,12.1-7.4,18.3c2,0.7,4.5,1.4,4.6,1.1   c1.9-5.6,5.1-12.7,7.2-18.1c3-7.7,5.6-15.8,5.7-24.1C62.8,198,61.6,196.9,60.2,196.7z"/>
	<path id="XMLID_58_" class="footer-cohete-15" d="M21.1,216.9l5.5-0.7c1.7,1.6,2.5,3,0.5,4.4l-5.5,0.6L21.1,216.9z"/>
	<g id="XMLID_359_">
		<path id="XMLID_57_" class="footer-cohete-52" d="M46.9,213.9c3.7-10.1,6.9-25,6.8-25.5l-12.4-0.3c0,0.1-2.4,22-2.4,22s-13.3,5.6-14.8,5.8    c-0.4,0.1,0.9,6.2,1.3,6.1c0.8-0.1,11.4-2.6,17-3.9C44.4,217.5,46.2,216,46.9,213.9z"/>
	</g>
	<path id="XMLID_56_" class="footer-cohete-53" d="M53.6,188.3l-4.9-0.1c-0.9,4.4-3.5,15.6-6.5,23.7c-0.7,2.1-2.5,3.6-4.6,4.1   c-3.6,0.9-9.4,2.2-13.2,3.1c0.3,1.4,0.7,2.8,0.9,2.8c0.8-0.1,11.4-2.6,17-3.9c2.1-0.5,3.9-2,4.6-4.1   C50.6,203.7,53.8,188.9,53.6,188.3z"/>
	<path id="XMLID_55_" class="footer-cohete-51" d="M16.7,227.1l5.5-5.6c0.6-1.6,0.5-3.2-0.4-4.7c-1.3-0.1-1.3-0.1-2.8-0.3   c-1.3-0.2-2.8,1.5-3.5,2.5l-2.6,4.9c-2,3.5-1,4.6-0.1,5.4l0,0C14,230.1,15.2,229,16.7,227.1z"/>
	<g id="XMLID_352_">
		<g id="XMLID_325_">
			<path id="XMLID_327_" class="footer-cohete-50" d="M44.5,155.8c-6.1,3.2-11,8.9-15.5,14c-1,1.1-1.5,1.8-1.8,3.2c-1.1,4.7-2.7,9.8-3.8,14.5     c-0.5,2.3,3.8-0.1,4.4-2.5c1.3-5.3,1.7-4.8,2.9-9.4c0.2-0.8,0.7-2.6,1-2.9c4.3-4.9,9-10.4,14.9-13.5     C48.7,157.9,46.7,154.6,44.5,155.8L44.5,155.8z"/>
		</g>
	</g>
	<path id="XMLID_53_" class="footer-cohete-14" d="M47.3,181.8c0.1,1.4-0.9,3.2-2.1,4c-1.2,0.8-2.3,0.2-2.3-1.2c-0.1-1.4,0.9-3.2,2.1-4   C46.2,179.9,47.2,180.4,47.3,181.8z"/>
	<path id="XMLID_52_" class="footer-cohete-53" d="M40.3,197l8.4,3.2c0.6,0.6-1.9-2.3-1.2-1.9c1.5,0.8,10.1,6.1,11.8,6.1c2.1-0.1,0.8-2,2.3-3.5   c1.4-1.4,1.7-3.6,1.7-5.5c0-0.5,0-1.1-0.2-1.6c-0.3-0.5-0.8-0.9-1.3-1.2c-3.8-2.6-10.8-6.7-16.5-6.8C39,185.6,39.9,189,40.3,197z"/>
	<linearGradient id="XMLID_338_" gradientUnits="userSpaceOnUse" x1="29.7372" y1="175.795" x2="65.1716" y2="175.795">
		<stop offset="0.1397" style="stop-color:#43FFD9"/>
		<stop offset="1" style="stop-color:#059AF7"/>
	</linearGradient>
	<path id="XMLID_51_" class="footer-cohete-54" d="M31,166.4c3.4-3.2,8.4-8.6,12.2-11.2c2.5-2.4,6.7-1.7,10,0.1c2.2,1.2,6.3,2.9,8.3,4   c0,0,1.8,7.7,1.7,8c0.2,9.1-0.2,13.6,1.4,24.7c0,0,1.1,4.1,0.2,4.7c0,0-2.1,2.3-6.5,0.4c-2.5-0.8-10.6-4.3-15.2-6.4   c-2-0.9-2.9-2.9-3.1-5.1c-0.4-4.6,1.6-8.3,0.4-19.6l-5,4.4c-0.9,0.8-2.6,2-3.2,1.5l-2.1-2.6C29.4,168.7,29.8,167.3,31,166.4z"/>
	<path id="XMLID_50_" class="footer-cohete-14" d="M58.5,157.9c-4.8-0.5-8.2,2.9-9.6-4l0,0c0.7-0.5,1.7-0.7,2.2,0c0.9,1.2,2.3,1.7,4.4,1.9   c0.6,0.1,1.2,0.1,1.5,0.6L58.5,157.9z"/>
	<path id="XMLID_49_" class="footer-cohete-14" d="M34.1,172.3c-0.1,0.2-4,0.7-5-4.8c0-0.1,0-0.3,0.1-0.4l1.9-2.5c0.2-0.3,0.6-0.3,0.8,0l4.8,5.7   c0.2,0.3,0.1,0.7-0.2,0.8L34.1,172.3z"/>
	<polygon id="XMLID_48_" class="footer-cohete-55" points="40.5,166 40.7,163.8 35.2,168.5 36.3,169.8  "/>
	<linearGradient id="XMLID_339_" gradientUnits="userSpaceOnUse" x1="58.2337" y1="168.8043" x2="71.2464" y2="168.8043">
		<stop offset="0.3547" style="stop-color:#2DDBE4"/>
		<stop offset="1" style="stop-color:#059AF7"/>
	</linearGradient>
	<path id="XMLID_47_" class="footer-cohete-56" d="M63,160.6l8.3,14.2l-5,3.6l-7.2-11.8c-2-3.1-0.1-6.2,1.4-7C60.5,159.5,61.6,158.3,63,160.6z"/>
	<path id="XMLID_46_" class="footer-cohete-14" d="M73,174.6c0.2,0,1.3,3.8-3.9,5.7c-0.1,0.1-0.3,0-0.4,0l-2.8-1.5c-0.3-0.2-0.4-0.6-0.2-0.8   l4.9-5.6c0.2-0.3,0.6-0.2,0.8,0L73,174.6z"/>
	<path id="XMLID_45_" class="footer-cohete-55" d="M65.1,194.5c0,0.1,0.9,2.1-1.1,2.9c-1.7,0.6-1.5,0.4-2.5,0.5c0.7-0.1-0.8-4.9-1.2-10.2   c-0.4-4.9,0.4-10.1-0.6-14.1c-0.7-2.8-1.7-12,0.6-6.8l3.1,6.8C63.3,173.6,63.4,183.2,65.1,194.5z"/>
	<path id="XMLID_44_" class="footer-cohete-5" d="M287.7,202.4L287.7,202.4c-1.2,0-2.1-1-2.1-2.1v-3.1c0-1.2,1-2.1,2.1-2.1l0,0   c1.2,0,2.1,1,2.1,2.1v3.1C289.9,201.4,288.9,202.4,287.7,202.4z"/>
	<path id="XMLID_43_" class="footer-cohete-57" d="M41,245.9c0,0,0.4-2.1,2.1-1.8c1.6,0.3,3.5,8.8,4.4,12.5c0.1,0.5-0.2,1.1-0.8,1.1   c-0.9,0.1-2.2-0.3-3.2-2.7C41.9,251,41,245.9,41,245.9z"/>
	<path id="XMLID_42_" class="footer-cohete-57" d="M16.2,217.3c0,0,1.7-1.3,2.6-0.1c0.8,1.1-3.8,8.3-5.7,11.4c-0.3,0.5-0.9,0.7-1.3,0.4   c-0.6-0.4-1.2-1.5-0.2-3.7C13.2,221.4,16.2,217.3,16.2,217.3z"/>
	<path id="XMLID_35_" class="footer-cohete-58" d="M43.3,190.9c0,0-2.6-0.7-3.1-3.9c-0.5-3.2-0.2-3.4,0-5.6c0.2-2.2,0.7-6.9,0.6-8.9   c0-2-2-13.6,4.6-18.5c0,0-2.7,5.2-2.7,16.2C42.7,173.7,43.3,190.9,43.3,190.9z"/>
	<path id="XMLID_34_" class="footer-cohete-7" d="M266.3,143.3c0,0,2.3,5.6,5,6.2l1.7,0.5l0.8-0.8c0,0-2.6-0.3-3.3-1.5   C269.9,146.5,267.4,143.1,266.3,143.3z"/>
	<polygon id="XMLID_33_" class="footer-cohete-59" points="111.7,170.3 88.2,162.4 92,147.5 115.5,155.5  "/>
	<g id="XMLID_24_">
		<g id="XMLID_25_">
			
				<linearGradient id="XMLID_340_" gradientUnits="userSpaceOnUse" x1="-153.4093" y1="79.5051" x2="-146.3916" y2="67.3502" gradientTransform="matrix(0.8118 -4.230000e-002 -0.1546 0.5431 237.2085 113.1941)">
				<stop offset="0" style="stop-color:#4432DB"/>
				<stop offset="0.2183" style="stop-color:#4D64E4"/>
				<stop offset="0.5898" style="stop-color:#5CB4F2"/>
				<stop offset="0.854" style="stop-color:#65E7FC"/>
				<stop offset="0.9837" style="stop-color:#69FAFF"/>
			</linearGradient>
			<path id="XMLID_31_" class="footer-cohete-60" d="M92.2,158.5c0,0,1.4-1.1,3.2-0.4c1.4,0.5,0.6,0.5,2.4,0.8c1.1,0.2,3.1-1.3,5.7-0.6     c4.6,1.2,7.1-2,8.8-0.4l-2.2,8l-18.3-6.1L92.2,158.5z"/>
			<g id="XMLID_332_">
				<path id="XMLID_23_" class="footer-cohete-14" d="M91.9,159.8C91.9,159.8,91.9,159.8,91.9,159.8c-0.1,0-0.1-0.1-0.1-0.1l2.2-8      c0,0,0.1-0.1,0.1-0.1c0,0,0.1,0.1,0.1,0.1L91.9,159.8C91.9,159.8,91.9,159.8,91.9,159.8z"/>
			</g>
			<g id="XMLID_330_">
				<path id="XMLID_22_" class="footer-cohete-14" d="M96.4,161.2C96.4,161.2,96.4,161.2,96.4,161.2c-0.1,0-0.1-0.1-0.1-0.1l2.2-8      c0,0,0.1-0.1,0.1-0.1c0,0,0.1,0.1,0.1,0.1L96.4,161.2C96.5,161.2,96.5,161.2,96.4,161.2z"/>
			</g>
			<g id="XMLID_328_">
				<path id="XMLID_21_" class="footer-cohete-14" d="M101,162.8C101,162.8,101,162.8,101,162.8c-0.1,0-0.1-0.1-0.1-0.1l2.2-8      c0,0,0.1-0.1,0.1-0.1c0,0,0.1,0.1,0.1,0.1L101,162.8C101.1,162.7,101,162.8,101,162.8z"/>
			</g>
			<g id="XMLID_326_">
				<path id="XMLID_16_" class="footer-cohete-14" d="M105.6,164.3C105.5,164.3,105.5,164.3,105.6,164.3c-0.1,0-0.1-0.1-0.1-0.1l2.2-8      c0,0,0.1-0.1,0.1-0.1c0,0,0.1,0.1,0.1,0.1L105.6,164.3C105.6,164.3,105.6,164.3,105.6,164.3z"/>
			</g>
			<g id="XMLID_324_">
				<path id="XMLID_15_" class="footer-cohete-14" d="M110.1,166C110.1,166,110.1,166,110.1,166c-0.1,0-0.1-0.1-0.1-0.1l2.2-8      c0,0,0.1-0.1,0.1-0.1c0,0,0.1,0.1,0.1,0.1L110.1,166C110.1,165.9,110.1,166,110.1,166z"/>
			</g>
			<path id="XMLID_13_" class="footer-cohete-14" d="M112.4,157.1l-0.6-0.2c-0.1,0-0.1-0.1-0.1-0.2l0,0c0-0.1,0.1-0.1,0.2-0.1l0.6,0.2     c0.1,0,0.1,0.1,0.1,0.2l0,0C112.5,157,112.5,157.1,112.4,157.1z"/>
			<path id="XMLID_12_" class="footer-cohete-14" d="M109.9,166.3l-0.6-0.2c0,0,0,0,0,0l-0.4-0.2c-0.1,0-0.1,0-0.2,0.1c0,0.1,0,0.1,0.1,0.2     l0.6,0.2c0,0,0,0,0,0l0.4,0.2c0.1,0,0.1,0,0.2-0.1C110,166.4,109.9,166.3,109.9,166.3z"/>
			<path id="XMLID_11_" class="footer-cohete-14" d="M104.9,164.5l-0.6-0.2c0,0,0,0,0,0l-0.4-0.2c-0.1,0-0.1,0-0.2,0.1c0,0.1,0,0.1,0.1,0.2     l0.6,0.2c0,0,0,0,0,0l0.4,0.2c0.1,0,0.1,0,0.2-0.1C105,164.6,105,164.5,104.9,164.5z"/>
			<path id="XMLID_10_" class="footer-cohete-14" d="M100.2,162.8l-0.6-0.2c0,0,0,0,0,0l-0.4-0.2c-0.1,0-0.1,0-0.2,0.1c0,0.1,0,0.1,0.1,0.2     l0.6,0.2c0,0,0,0,0,0l0.4,0.2c0.1,0,0.1,0,0.2-0.1C100.4,162.9,100.3,162.9,100.2,162.8z"/>
			<path id="XMLID_9_" class="footer-cohete-14" d="M95.9,161.3l-0.6-0.2c0,0,0,0,0,0l-0.4-0.2c-0.1,0-0.1,0-0.2,0.1c0,0.1,0,0.1,0.1,0.2     l0.6,0.2c0,0,0,0,0,0l0.4,0.2c0.1,0,0.1,0,0.2-0.1C96,161.4,95.9,161.3,95.9,161.3z"/>
			<path id="XMLID_8_" class="footer-cohete-14" d="M107.8,155.6l-0.6-0.2c-0.1,0-0.1-0.1-0.1-0.2l0,0c0-0.1,0.1-0.1,0.2-0.1l0.6,0.2     c0.1,0,0.1,0.1,0.1,0.2l0,0C107.9,155.6,107.8,155.7,107.8,155.6z"/>
			<path id="XMLID_7_" class="footer-cohete-14" d="M103.2,154.3l-0.6-0.2c-0.1,0-0.1-0.1-0.1-0.2l0,0c0-0.1,0.1-0.1,0.2-0.1l0.6,0.2     c0.1,0,0.1,0.1,0.1,0.2l0,0C103.3,154.2,103.3,154.3,103.2,154.3z"/>
			<path id="XMLID_6_" class="footer-cohete-14" d="M98.6,152.8l-0.6-0.2c-0.1,0-0.1-0.1-0.1-0.2l0,0c0-0.1,0.1-0.1,0.2-0.1l0.6,0.2     c0.1,0,0.1,0.1,0.1,0.2l0,0C98.7,152.8,98.6,152.8,98.6,152.8z"/>
			<path id="XMLID_5_" class="footer-cohete-14" d="M94,151.4l-0.6-0.2c-0.1,0-0.1-0.1-0.1-0.2l0,0c0-0.1,0.1-0.1,0.2-0.1l0.6,0.2     c0.1,0,0.1,0.1,0.1,0.2l0,0C94.2,151.4,94.1,151.4,94,151.4z"/>
			<path id="XMLID_4_" class="footer-cohete-14" d="M91.2,159.8l-0.6-0.2c0,0,0,0,0,0l-0.4-0.2c-0.1,0-0.1,0-0.2,0.1c0,0.1,0,0.1,0.1,0.2     l0.6,0.2c0,0,0,0,0,0l0.4,0.2c0.1,0,0.1,0,0.2-0.1C91.3,159.9,91.2,159.8,91.2,159.8z"/>
		</g>
	</g>
	<circle id="XMLID_3_" class="footer-cohete-0" cx="32" cy="113.1" r="1.3"/>
	<circle id="XMLID_2_" class="footer-cohete-0" cx="63" cy="283.7" r="3.1"/>
	<circle id="XMLID_1_" class="footer-cohete-0" cx="301.1" cy="49.4" r="1.9"/>
</g>
</svg>