<svg xmlns="http://www.w3.org/2000/svg" width="42.725" height="50.026" viewBox="0 0 42.725 50.026">
  <g id="linux_1_" data-name="linux (1)" transform="translate(-37.364)">
    <g id="Grupo_2838" data-name="Grupo 2838" transform="translate(47.971 7.23)">
      <path id="Trazado_3861" data-name="Trazado 3861" d="M256.586,77.531c-.007-.077-.011-.154-.011-.231a1.887,1.887,0,0,1,1.652-2.052,1.867,1.867,0,0,1,1.662,2.052,2.479,2.479,0,0,1-.112.744,2.937,2.937,0,0,0,.431-1.553,2.017,2.017,0,1,0-3.92,0,3.137,3.137,0,0,0,.158.987Z" transform="translate(-245.505 -73.995)" fill="#fff"/>
      <path id="Trazado_3862" data-name="Trazado 3862" d="M200.591,79.626a1.093,1.093,0,0,1,.167-.013A1.818,1.818,0,0,1,202.3,81.3a2.864,2.864,0,0,1,.033.32q.071-.036.144-.067a3.468,3.468,0,0,0,.036-.489c0-1.269-.672-2.341-1.467-2.341-.677,0-1.248.746-1.411,1.754A1.291,1.291,0,0,1,200.591,79.626Z" transform="translate(-194.389 -78.265)" fill="#fff"/>
      <path id="Trazado_3863" data-name="Trazado 3863" d="M165.782,178.2a14.261,14.261,0,0,0,.2-5.132c-.434-3.016-4.678-12.408-5.408-13.457a12.448,12.448,0,0,0-2.476,1.244,16.42,16.42,0,0,1-2.914,1.467,1.788,1.788,0,0,1-.488.066,5.156,5.156,0,0,1-3.042-1.654,8.278,8.278,0,0,1-1.7,4.13,11.791,11.791,0,0,0-1.42,3.245,16.915,16.915,0,0,1-1.361,3.282c-1.056,1.646-1.662,4.842-.893,6.66.372.881,1.722,1.922,2.912,2.84,1.456,1.123,2.714,2.092,2.853,3.07a1.9,1.9,0,0,1-1.068,2.1l1.559,1.784a11.867,11.867,0,0,0,1.731.107,24.62,24.62,0,0,0,3.508-.277,9.78,9.78,0,0,0,5.692-3.56,41.655,41.655,0,0,1,.234-4.921c.081-.385.394-1.031,1.577-1.031A3.7,3.7,0,0,1,165.782,178.2Z" transform="translate(-145.932 -151.242)" fill="#fff"/>
    </g>
    <g id="Grupo_2839" data-name="Grupo 2839" transform="translate(39.778 12.225)">
      <path id="Trazado_3864" data-name="Trazado 3864" d="M210.488,127.261a3.94,3.94,0,0,0,1.437,1.392c.119.076.23.152.335.223.465.316.671.445,1.005.4a17.83,17.83,0,0,0,3.078-1.632l.193-.117c.288-.175.518-.3.7-.392.366-.191.4-.221.415-.291a2.032,2.032,0,0,0-1.04-.622c-.209-.075-.5-.193-.847-.33a17.538,17.538,0,0,0-2.169-.774.275.275,0,0,0-.053,0,3.745,3.745,0,0,0-1.762,1.094C211.438,126.522,210.761,127.05,210.488,127.261Z" transform="translate(-195.987 -125.115)" fill="#e69629"/>
      <path id="Trazado_3865" data-name="Trazado 3865" d="M70.383,367.659c-.3-.51-.568-.951-.71-1.171-.561-.873-1.534-1.847-2-1.847a.139.139,0,0,0-.076.018,2.452,2.452,0,0,0-.657.985,3.5,3.5,0,0,1-1.176,1.578,6.1,6.1,0,0,1-1.726.543c-.453.1-1.514.328-1.564.543a2.224,2.224,0,0,0,.076.969,4.487,4.487,0,0,1,.113,1.687,8.891,8.891,0,0,1-.328,1.234c-.175.551-.374,1.175-.2,1.367a10.18,10.18,0,0,0,2.416.543,16.009,16.009,0,0,1,3.12.7l.2.083c1.327.557,3.8,1.6,5.044,1.6a1.337,1.337,0,0,0,.288-.027,3.151,3.151,0,0,0,1.3-1.6c.234-1.038-.717-2.248-1.3-2.877A37.423,37.423,0,0,1,70.383,367.659Z" transform="translate(-62.071 -341.238)" fill="#e69629"/>
      <path id="Trazado_3866" data-name="Trazado 3866" d="M352.228,378.349l-.152-.08a3.53,3.53,0,0,1-1.521-3.18,1.264,1.264,0,0,0-.054-.493,5.7,5.7,0,0,1-.8,1.045,5.047,5.047,0,0,1-3.137,1.156,3.076,3.076,0,0,1-1.236-.239c-1.221-.533-1.388-2.06-1.391-2.825a.322.322,0,0,0-.049.018,8.781,8.781,0,0,0,.046,1.752c.026.32.053.652.069.956a24.28,24.28,0,0,1-.728,5.281c-.351,1.635.3,2.781,1.1,3.029a.791.791,0,0,0,.24.034,5.4,5.4,0,0,0,3.014-1.884,17.147,17.147,0,0,1,3.949-2.428,14.254,14.254,0,0,0,1.961-1.1.221.221,0,0,0,.064-.08C353.588,379.063,352.6,378.544,352.228,378.349Z" transform="translate(-315.716 -349.441)" fill="#e69629"/>
    </g>
    <path id="Trazado_3867" data-name="Trazado 3867" d="M78.763,40.166c-1.467-.6-2.095-1.4-2.034-2.588a3.966,3.966,0,0,0-1.1-2.807,12.171,12.171,0,0,0,0-6.445c-.952-2.777-3.858-7.018-6.857-11.187-1.228-1.712-1.286-3.573-1.353-5.728a17.414,17.414,0,0,0-1.283-6.975A7.214,7.214,0,0,0,59.276,0a9.391,9.391,0,0,0-5.218,1.588c-3,2.068-2.6,6.577-2.338,9.561.036.409.07.795.089,1.124.174,2.922.016,4.462-.192,4.931a20.247,20.247,0,0,1-1.5,2.1c-.724.953-1.544,2.034-2.217,3.041A23.817,23.817,0,0,0,45.828,27.2a23.312,23.312,0,0,1-1.313,3.288,4.478,4.478,0,0,0-.434,3.363,3.456,3.456,0,0,0-1.108,1.4c-.446.951-1.35,1.462-3.231,1.824a2.491,2.491,0,0,0-1.772,1.08,3.064,3.064,0,0,0,.019,2.448,3.808,3.808,0,0,1-.252,2.76c-.087.263-.186.561-.285.889a1.6,1.6,0,0,0,.168,1.4c.71,1.086,2.783,1.469,4.917,1.721a18.96,18.96,0,0,1,4.017,1.154,18.859,18.859,0,0,0,3.93,1.134,4.473,4.473,0,0,0,.556.036,3.27,3.27,0,0,0,2.991-1.755,33.258,33.258,0,0,1,5.392-.637,23.439,23.439,0,0,1,5.359.551A4.312,4.312,0,0,0,66.4,49.617a3.918,3.918,0,0,0,1.816.409h0a4.38,4.38,0,0,0,3.193-1.319c1.088-1.153,3.806-2.624,5.79-3.7.443-.24.857-.464,1.22-.667a2.731,2.731,0,0,0,1.669-2.423A2.049,2.049,0,0,0,78.763,40.166ZM60.714,7.23a2.279,2.279,0,0,1,1.96,2.495,2.938,2.938,0,0,1-.431,1.553,2.486,2.486,0,0,0,.112-.744,1.867,1.867,0,0,0-1.662-2.052,1.887,1.887,0,0,0-1.652,2.052c0,.077,0,.154.011.231l-.141-.054a3.137,3.137,0,0,1-.158-.987A2.279,2.279,0,0,1,60.714,7.23Zm-3.324,5A17.512,17.512,0,0,1,59.559,13c.343.137.639.255.847.33a2.031,2.031,0,0,1,1.04.622c-.016.07-.049.1-.415.291-.185.1-.415.216-.7.392l-.193.117a17.81,17.81,0,0,1-3.078,1.632c-.334.045-.541-.085-1.005-.4-.1-.071-.216-.147-.335-.223a3.942,3.942,0,0,1-1.437-1.392c.273-.211.95-.739,1.3-1.052a3.745,3.745,0,0,1,1.762-1.094A.255.255,0,0,1,57.39,12.229ZM54.629,7.692c.8,0,1.467,1.072,1.467,2.341a3.45,3.45,0,0,1-.036.489c-.049.021-.1.043-.144.067a2.908,2.908,0,0,0-.033-.32A1.818,1.818,0,0,0,54.34,8.577a1.1,1.1,0,0,0-.167.013,1.292,1.292,0,0,0-.955.855C53.381,8.438,53.952,7.692,54.629,7.692ZM52.206,45.837a3.151,3.151,0,0,1-1.3,1.6,1.338,1.338,0,0,1-.288.027c-1.248,0-3.717-1.038-5.044-1.6l-.2-.083a16.005,16.005,0,0,0-3.12-.7,10.181,10.181,0,0,1-2.416-.543c-.171-.192.027-.817.2-1.367a8.864,8.864,0,0,0,.328-1.234,4.491,4.491,0,0,0-.113-1.687,2.226,2.226,0,0,1-.076-.969c.05-.215,1.111-.445,1.564-.543a6.1,6.1,0,0,0,1.726-.543,3.5,3.5,0,0,0,1.176-1.578,2.451,2.451,0,0,1,.657-.985.138.138,0,0,1,.076-.018c.464,0,1.437.975,2,1.847.142.22.406.66.71,1.171A37.427,37.427,0,0,0,50.9,42.96C51.489,43.589,52.44,44.8,52.206,45.837ZM65.74,35.178a41.741,41.741,0,0,0-.234,4.921,9.78,9.78,0,0,1-5.692,3.56,24.648,24.648,0,0,1-3.508.277,11.9,11.9,0,0,1-1.731-.107l-1.559-1.784a1.9,1.9,0,0,0,1.068-2.1c-.139-.978-1.4-1.947-2.853-3.07-1.191-.918-2.54-1.958-2.912-2.84-.768-1.818-.163-5.014.893-6.66a16.911,16.911,0,0,0,1.361-3.282,11.793,11.793,0,0,1,1.42-3.245,8.279,8.279,0,0,0,1.7-4.13,5.156,5.156,0,0,0,3.042,1.654,1.791,1.791,0,0,0,.488-.066,16.436,16.436,0,0,0,2.914-1.467,12.446,12.446,0,0,1,2.476-1.244c.73,1.049,4.974,10.441,5.408,13.457a14.261,14.261,0,0,1-.2,5.132,3.756,3.756,0,0,0-.505-.036C66.134,34.147,65.821,34.793,65.74,35.178ZM77.6,42.172a14.247,14.247,0,0,1-1.961,1.1A17.132,17.132,0,0,0,71.692,45.7a5.4,5.4,0,0,1-3.014,1.884.792.792,0,0,1-.24-.034c-.794-.247-1.448-1.394-1.1-3.029a24.3,24.3,0,0,0,.728-5.281c-.016-.3-.043-.635-.069-.956a8.781,8.781,0,0,1-.046-1.752A.315.315,0,0,1,68,36.517c0,.766.169,2.293,1.391,2.825a3.076,3.076,0,0,0,1.236.239,5.047,5.047,0,0,0,3.137-1.156,5.7,5.7,0,0,0,.8-1.045,1.261,1.261,0,0,1,.054.493,3.53,3.53,0,0,0,1.521,3.18l.152.08c.372.2,1.36.714,1.376.96A.232.232,0,0,1,77.6,42.172Z"/>
  </g>
</svg>
