<svg id="wordpress_2_" data-name="wordpress (2)" xmlns="http://www.w3.org/2000/svg" width="108.508" height="108.508" viewBox="0 0 108.508 108.508">
  <path id="Trazado_6536" data-name="Trazado 6536" d="M84.03,61.177H78.038l16.336,46.179,9.146-26.135L96.429,61.177H90.107v-4.4h28v4.4h-6.556l16.336,46.179,5.872-16.781c7.7-21.5-6.314-28.2-6.314-33a8.688,8.688,0,0,1,8.688-8.688c.26,0,.512.014.759.037a45.4,45.4,0,0,0-68.938,7.848H84.03v4.4Z" transform="translate(-51.481 -27.689)" fill="#00769d"/>
  <path id="Trazado_6537" data-name="Trazado 6537" d="M36.548,168.182a45.386,45.386,0,0,0,24.113,40.1l-20.486-57.91A45.247,45.247,0,0,0,36.548,168.182Z" transform="translate(-27.689 -113.928)" fill="#00769d"/>
  <path id="Trazado_6538" data-name="Trazado 6538" d="M330.038,131.547a32.089,32.089,0,0,1-.544,12.434h.181l-.686,1.961h0a42.3,42.3,0,0,1-1.5,4.288l-15.62,43.76a45.416,45.416,0,0,0,18.17-62.444Z" transform="translate(-236.277 -99.662)" fill="#00769d"/>
  <path id="Trazado_6539" data-name="Trazado 6539" d="M166.075,285.317a45.608,45.608,0,0,0,27.389.2l-13.279-37.536Z" transform="translate(-125.821 -187.872)" fill="#00769d"/>
  <path id="Trazado_6540" data-name="Trazado 6540" d="M92.617,15.891A54.254,54.254,0,0,0,15.891,92.617,54.254,54.254,0,1,0,92.617,15.891Zm-38.364,88.79a50.427,50.427,0,1,1,50.427-50.427A50.484,50.484,0,0,1,54.254,104.681Z" fill="#00769d"/>
</svg>
